<svg width="21" height="20" viewBox="0 0 21 20" fill="none" xmlns="http://www.w3.org/2000/svg">
<path d="M10.6986 0.5016C5.17483 0.386078 0.609608 4.65323 0.497131 10.0315C0.407125 14.3352 3.19517 18.0447 7.13989 19.4145C7.63787 19.5166 7.82746 19.219 7.83287 18.9605C7.83771 18.7293 7.84219 18.1163 7.855 17.3043C5.06167 17.8334 4.51473 15.9274 4.51473 15.9274C4.08334 14.7938 3.43227 14.4794 3.43227 14.4794C2.53926 13.8568 3.51462 13.8895 3.51462 13.8895C4.51715 13.9783 5.02497 14.925 5.02497 14.925C5.8853 16.4328 7.34315 16.0328 7.91989 15.7961C8.02305 15.1679 8.28945 14.7446 8.58032 14.5069C6.36507 14.2169 4.04893 13.3306 4.12696 9.59922C4.14919 8.53629 4.55478 7.67555 5.21055 7.00761C5.10322 6.75914 4.78651 5.76184 5.35194 4.43182C5.35194 4.43182 6.19472 4.18835 8.08046 5.48783C8.88481 5.28817 9.73687 5.19858 10.5868 5.21139C11.4365 5.23412 12.2841 5.35926 13.0794 5.59237C15.0053 4.37261 15.8371 4.65111 15.8371 4.65111C16.3465 6.0036 15.9883 6.98678 15.8832 7.23081C16.5063 7.9255 16.8756 8.80245 16.8533 9.86537C16.7751 13.6067 14.4209 14.3812 12.1914 14.5742C12.5352 14.8739 12.8476 15.4778 12.8285 16.3904C12.8013 17.6937 12.7669 18.7406 12.7603 19.057C12.7549 19.3122 12.9235 19.6206 13.4379 19.5338C17.4646 18.339 20.4029 14.7468 20.4928 10.4496C20.6052 5.07141 16.2199 0.617069 10.6986 0.5016Z" fill="#212121"/>
</svg>
